3D InterOp IGES (v. 2021 1.0.1), Spatial Corp. Copyright (c) 1999-2020. S      1
1H,,1H;,6HNoname,13Hxushanlin.igs,13HSpatial Corp.,20H3D InterOp ACIS/IGG      1
ES,32,38, 6,308,15,6HNoname,1.000,2,2HMM,1,1.000,15H20230629.231510,    G      2
1.0e-06,0.00,6HNoname,6HNoname,11,0,15H20230629.231510;                 G      3
     314       1       0       0       0       0       0       000010001D      1
     314       0       0       2       0       0       0               0D      2
     110       3       0       0       0       0       0       000010001D      3
     110       0       0       1       0       0       0               0D      4
     122       4       0       0       0       0       0       000010001D      5
     122       0       0       1       0       0       0               0D      6
     110       5       0       0       0       0       0       000010001D      7
     110       0       0       1       0       0       0               0D      8
     110       6       0       0       0       0       0       000010001D      9
     110       0       0       1       0       0       0               0D     10
     110       7       0       0       0       0       0       000010001D     11
     110       0       0       1       0       0       0               0D     12
     110       8       0       0       0       0       0       000010001D     13
     110       0       0       1       0       0       0               0D     14
     102       9       0       0       0       0       0       000010001D     15
     102       0       0       1       0       0       0               0D     16
     142      10       0       0       0       0       0       000010001D     17
     142       0       0       1       0       0       0               0D     18
     144      11       0       0       0       0       0       000000001D     19
     144       0      -1       1       0       0       0               0D     20
     314      12       0       0       0       0       0       000010001D     21
     314       0       0       2       0       0       0               0D     22
     110      14       0       0       0       0       0       000010001D     23
     110       0       0       1       0       0       0               0D     24
     122      15       0       0       0       0       0       000010001D     25
     122       0       0       1       0       0       0               0D     26
     110      16       0       0       0       0       0       000010001D     27
     110       0       0       1       0       0       0               0D     28
     502      17       0       0       0       0       0       000010001D     29
     502       0       0       6       1       0       0               0D     30
     110      23       0       0       0       0       0       000010001D     31
     110       0       0       1       0       0       0               0D     32
     110      24       0       0       0       0       0       000010001D     33
     110       0       0       1       0       0       0               0D     34
     110      25       0       0       0       0       0       000010001D     35
     110       0       0       1       0       0       0               0D     36
     110      26       0       0       0       0       0       000010001D     37
     110       0       0       1       0       0       0               0D     38
     110      27       0       0       0       0       0       000010001D     39
     110       0       0       1       0       0       0               0D     40
     110      28       0       0       0       0       0       000010001D     41
     110       0       0       1       0       0       0               0D     42
     110      29       0       0       0       0       0       000010001D     43
     110       0       0       1       0       0       0               0D     44
     110      30       0       0       0       0       0       000010001D     45
     110       0       0       1       0       0       0               0D     46
     110      31       0       0       0       0       0       000010001D     47
     110       0       0       1       0       0       0               0D     48
     110      32       0       0       0       0       0       000010001D     49
     110       0       0       1       0       0       0               0D     50
     110      33       0       0       0       0       0       000010001D     51
     110       0       0       1       0       0       0               0D     52
     110      34       0       0       0       0       0       000010001D     53
     110       0       0       1       0       0       0               0D     54
     110      35       0       0       0       0       0       000010001D     55
     110       0       0       1       0       0       0               0D     56
     110      36       0       0       0       0       0       000010001D     57
     110       0       0       1       0       0       0               0D     58
     110      37       0       0       0       0       0       000010001D     59
     110       0       0       1       0       0       0               0D     60
     110      38       0       0       0       0       0       000010001D     61
     110       0       0       1       0       0       0               0D     62
     110      39       0       0       0       0       0       000010001D     63
     110       0       0       1       0       0       0               0D     64
     110      40       0       0       0       0       0       000010001D     65
     110       0       0       1       0       0       0               0D     66
     110      41       0       0       0       0       0       000010001D     67
     110       0       0       1       0       0       0               0D     68
     110      42       0       0       0       0       0       000010001D     69
     110       0       0       1       0       0       0               0D     70
     110      43       0       0       0       0       0       000010001D     71
     110       0       0       1       0       0       0               0D     72
     110      44       0       0       0       0       0       000010001D     73
     110       0       0       1       0       0       0               0D     74
     110      45       0       0       0       0       0       000010001D     75
     110       0       0       1       0       0       0               0D     76
     504      46       0       0       0       0       0       000010001D     77
     504       0       0       6       1       0       0               0D     78
     508      52       0       0       0       0       0       000010001D     79
     508       0       0       1       1       0       0               0D     80
     510      53       0       0       0       0       0       000010001D     81
     510       0       0       1       1       0       0               0D     82
     110      54       0       0       0       0       0       000010001D     83
     110       0       0       1       0       0       0               0D     84
     122      55       0       0       0       0       0       000010001D     85
     122       0       0       1       0       0       0               0D     86
     508      56       0       0       0       0       0       000010001D     87
     508       0       0       1       1       0       0               0D     88
     510      57       0       0       0       0       0       000010001D     89
     510       0       0       1       1       0       0               0D     90
     110      58       0       0       0       0       0       000010001D     91
     110       0       0       1       0       0       0               0D     92
     122      59       0       0       0       0       0       000010001D     93
     122       0       0       1       0       0       0               0D     94
     508      60       0       0       0       0       0       000010001D     95
     508       0       0       1       1       0       0               0D     96
     510      61       0       0       0       0       0       000010001D     97
     510       0       0       1       1       0       0               0D     98
     110      62       0       0       0       0       0       000010001D     99
     110       0       0       1       0       0       0               0D    100
     122      63       0       0       0       0       0       000010001D    101
     122       0       0       1       0       0       0               0D    102
     508      64       0       0       0       0       0       000010001D    103
     508       0       0       1       1       0       0               0D    104
     510      65       0       0       0       0       0       000010001D    105
     510       0       0       1       1       0       0               0D    106
     110      66       0       0       0       0       0       000010001D    107
     110       0       0       1       0       0       0               0D    108
     122      67       0       0       0       0       0       000010001D    109
     122       0       0       1       0       0       0               0D    110
     508      68       0       0       0       0       0       000010001D    111
     508       0       0       1       1       0       0               0D    112
     510      69       0       0       0       0       0       000010001D    113
     510       0       0       1       1       0       0               0D    114
     110      70       0       0       0       0       0       000010001D    115
     110       0       0       1       0       0       0               0D    116
     122      71       0       0       0       0       0       000010001D    117
     122       0       0       1       0       0       0               0D    118
     508      72       0       0       0       0       0       000010001D    119
     508       0       0       1       1       0       0               0D    120
     508      73       0       0       0       0       0       000010001D    121
     508       0       0       1       1       0       0               0D    122
     510      74       0       0       0       0       0       000010001D    123
     510       0       0       1       1       0       0               0D    124
     110      75       0       0       0       0       0       000010001D    125
     110       0       0       1       0       0       0               0D    126
     122      76       0       0       0       0       0       000010001D    127
     122       0       0       1       0       0       0               0D    128
     508      77       0       0       0       0       0       000010001D    129
     508       0       0       1       1       0       0               0D    130
     510      78       0       0       0       0       0       000010001D    131
     510       0       0       1       1       0       0               0D    132
     110      79       0       0       0       0       0       000010001D    133
     110       0       0       1       0       0       0               0D    134
     122      80       0       0       0       0       0       000010001D    135
     122       0       0       1       0       0       0               0D    136
     508      81       0       0       0       0       0       000010001D    137
     508       0       0       1       1       0       0               0D    138
     510      82       0       0       0       0       0       000010001D    139
     510       0       0       1       1       0       0               0D    140
     110      83       0       0       0       0       0       000010001D    141
     110       0       0       1       0       0       0               0D    142
     122      84       0       0       0       0       0       000010001D    143
     122       0       0       1       0       0       0               0D    144
     508      85       0       0       0       0       0       000010001D    145
     508       0       0       1       1       0       0               0D    146
     510      86       0       0       0       0       0       000010001D    147
     510       0       0       1       1       0       0               0D    148
     110      87       0       0       0       0       0       000010001D    149
     110       0       0       1       0       0       0               0D    150
     122      88       0       0       0       0       0       000010001D    151
     122       0       0       1       0       0       0               0D    152
     508      89       0       0       0       0       0       000010001D    153
     508       0       0       1       1       0       0               0D    154
     510      90       0       0       0       0       0       000010001D    155
     510       0       0       1       1       0       0               0D    156
     110      91       0       0       0       0       0       000010001D    157
     110       0       0       1       0       0       0               0D    158
     122      92       0       0       0       0       0       000010001D    159
     122       0       0       1       0       0       0               0D    160
     508      93       0       0       0       0       0       000010001D    161
     508       0       0       1       1       0       0               0D    162
     510      94       0       0       0       0       0       000010001D    163
     510       0       0       1       1       0       0               0D    164
     514      95       0       0       0       0       0       000010001D    165
     514       0       0       2       1       0       0               0D    166
     186      97       0       0       0       0       0       000000001D    167
     186       0     -21       1       0       0       0             0D    168
314,56.07843137254902,68.62745098039215,56.07843137254902,10HMix       1P      1
edColor;                                                               1P      2
110,0.,0.,0.,50.00000000000001,0.,0.;                                  3P      3
122,3,0.,7.2,0.;                                                       5P      4
110,50.00000000000001,7.2,0.,0.,7.2,0.;                                7P      5
110,0.,7.2,0.,0.,0.,0.;                                                9P      6
110,0.,0.,0.,50.00000000000001,0.,0.;                                 11P      7
110,50.00000000000001,0.,0.,50.00000000000001,7.2,0.;                 13P      8
102,4,7,9,11,13;                                                      15P      9
142,1,5,0,15,2;                                                       17P     10
144,5,1,0,17;                                                         19P     11
314,56.07843137254902,68.62745098039215,56.07843137254902,10HMix      21P     12
edColor;                                                              21P     13
110,50.00000000000001,2.4,4.8,72.00000000000001,2.4,4.8;              23P     14
122,23,50.00000000000001,4.8,4.8;                                     25P     15
110,0.,0.,7.2,0.,7.2,7.2;                                             27P     16
502,16,50.,0.,7.2,72.00000000000001,4.8,2.4,50.,7.2,7.2,              29P     17
72.00000000000001,4.8,4.8,50.00000000000001,2.4,4.8,                  29P     18
50.00000000000001,2.4,2.4,50.00000000000001,4.8,4.8,                  29P     19
72.00000000000001,2.4,2.4,0.,7.2,0.,0.,7.2,7.2,                       29P     20
50.00000000000001,4.8,2.4,72.00000000000001,2.4,4.8,0.,0.,7.2,        29P     21
0.,0.,0.,50.00000000000001,7.2,0.,50.00000000000001,0.,0.;            29P     22
110,50.00000000000001,2.4,4.8,50.00000000000001,2.4,2.4;              31P     23
110,50.,0.,7.2,50.,7.2,7.2;                                           33P     24
110,0.,0.,7.2,50.,0.,7.2;                                             35P     25
110,0.,0.,0.,0.,7.2,0.;                                               37P     26
110,72.00000000000001,4.8,4.8,72.00000000000001,2.4,4.8;              39P     27
110,50.,7.2,7.2,0.,7.2,7.2;                                           41P     28
110,0.,7.2,0.,50.00000000000001,7.2,0.;                               43P     29
110,50.00000000000001,0.,0.,50.00000000000001,7.2,0.;                 45P     30
110,50.,7.2,0.,50.,7.2,7.2;                                           47P     31
110,50.00000000000001,4.8,2.4,50.00000000000001,4.8,4.8;              49P     32
110,50.00000000000001,4.8,4.8,50.00000000000001,2.4,4.8;              51P     33
110,72.00000000000001,2.4,4.8,72.00000000000001,2.4,2.4;              53P     34
110,72.00000000000001,4.8,2.4,72.00000000000001,4.8,4.8;              55P     35
110,50.00000000000001,2.4,2.4,72.00000000000001,2.4,2.4;              57P     36
110,50.00000000000001,2.4,4.8,72.00000000000001,2.4,4.8;              59P     37
110,50.,0.,7.2,50.,0.,0.;                                             61P     38
110,50.00000000000001,4.8,4.8,72.00000000000001,4.8,4.8;              63P     39
110,50.00000000000001,2.4,2.4,50.00000000000001,4.8,2.4;              65P     40
110,0.,7.2,7.2,0.,7.2,0.;                                             67P     41
110,0.,0.,0.,0.,0.,7.2;                                               69P     42
110,50.00000000000001,0.,0.,0.,0.,0.;                                 71P     43
110,50.00000000000001,4.8,2.4,72.00000000000001,4.8,2.4;              73P     44
110,72.00000000000001,2.4,2.4,72.00000000000001,4.8,2.4;              75P     45
504,24,27,29,13,29,10,31,29,5,29,6,33,29,1,29,3,35,29,13,29,1,        77P     46
37,29,14,29,9,39,29,4,29,12,41,29,3,29,10,43,29,9,29,15,45,29,        77P     47
16,29,15,47,29,15,29,3,49,29,11,29,7,51,29,7,29,5,53,29,12,29,8,      77P     48
55,29,2,29,4,57,29,6,29,8,59,29,5,29,12,61,29,1,29,16,63,29,7,        77P     49
29,4,65,29,6,29,11,67,29,10,29,9,69,29,14,29,13,71,29,16,29,14,       77P     50
73,29,11,29,2,75,29,8,29,2;                                           77P     51
508,4,0,77,6,0,0,0,77,18,0,0,0,77,12,1,0,0,77,16,1,0;                 79P     52
510,25,1,1,79;                                                        81P     53
110,50.00000000000001,4.8,2.4,50.00000000000001,4.8,4.8;              83P     54
122,83,72.00000000000001,4.8,2.4;                                     85P     55
508,4,0,77,14,0,0,0,77,23,0,0,0,77,11,1,0,0,77,18,1,0;                87P     56
510,85,1,1,87;                                                        89P     57
110,72.00000000000001,2.4,2.4,50.00000000000001,2.4,2.4;              91P     58
122,91,72.00000000000001,4.8,2.4;                                     93P     59
508,4,0,77,24,0,0,0,77,15,0,0,0,77,19,1,0,0,77,23,1,0;                95P     60
510,93,1,1,95;                                                        97P     61
110,50.00000000000001,2.4,4.8,50.00000000000001,2.4,2.4;              99P     62
122,99,72.00000000000001,2.4,4.8;                                    101P     63
508,4,0,77,13,0,0,0,77,16,0,0,0,77,2,1,0,0,77,15,1,0;                103P     64
510,101,1,1,103;                                                     105P     65
110,72.00000000000001,2.4,4.8,72.00000000000001,2.4,2.4;             107P     66
122,107,72.00000000000001,4.8,4.8;                                   109P     67
508,4,0,77,13,1,0,0,77,24,1,0,0,77,14,1,0,0,77,6,1,0;                111P     68
510,109,1,1,111;                                                     113P     69
110,50.,0.,7.2,50.,0.,0.;                                            115P     70
122,115,50.,7.2,7.2;                                                 117P     71
508,4,0,77,10,1,0,0,77,3,0,0,0,77,17,1,0,0,77,9,1,0;                 119P     72
508,4,0,77,2,0,0,0,77,12,0,0,0,77,11,0,0,0,77,19,0,0;                121P     73
510,117,2,1,119,121;                                                 123P     74
110,0.,0.,7.2,50.,0.,7.2;                                            125P     75
122,125,0.,7.2,7.2;                                                  127P     76
508,4,0,77,7,1,0,0,77,1,0,0,0,77,4,1,0,0,77,3,1,0;                   129P     77
510,127,1,1,129;                                                     131P     78
110,0.,0.,0.,0.,0.,7.2;                                              133P     79
122,133,0.,7.2,0.;                                                   135P     80
508,4,0,77,20,1,0,0,77,5,0,0,0,77,21,1,0,0,77,1,1,0;                 137P     81
510,135,1,1,137;                                                     139P     82
110,50.00000000000001,0.,0.,0.,0.,0.;                                141P     83
122,141,50.00000000000001,7.2,0.;                                    143P     84
508,4,0,77,8,1,0,0,77,9,0,0,0,77,22,1,0,0,77,5,1,0;                  145P     85
510,143,1,1,145;                                                     147P     86
110,0.,7.2,0.,0.,7.2,7.2;                                            149P     87
122,149,50.00000000000001,7.2,0.;                                    151P     88
508,4,0,77,10,0,0,0,77,8,0,0,0,77,20,0,0,0,77,7,0,0;                 153P     89
510,151,1,1,153;                                                     155P     90
110,0.,0.,0.,0.,0.,7.2;                                              157P     91
122,157,50.00000000000001,0.,0.;                                     159P     92
508,4,0,77,22,0,0,0,77,17,0,0,0,77,4,0,0,0,77,21,0,0;                161P     93
510,159,1,1,161;                                                     163P     94
514,11,81,1,89,1,97,1,105,1,113,1,123,1,131,1,139,1,147,1,155,1,     165P     95
163,0;                                                               165P     96
186,165,1,0;                                                         167P     97
S      1G      3D    168P     97                                        T      1
